<svg data-name="Group 39910" xmlns="http://www.w3.org/2000/svg" width="192.763" height="48.06" viewBox="0 0 192.763 48.06">
    <defs>
        <clipPath id="iqf80gj7ua">
            <path data-name="Rectangle 22553" style="fill:#6c3d8e" d="M0 0h192.763v48.06H0z"/>
        </clipPath>
    </defs>
    <g data-name="Group 39832" style="clip-path:url(#iqf80gj7ua)">
        <path data-name="Path 78080" d="M16.176 47.979c-2.339-.067-3.743-.067-4.545-2.874-.869-2.807-1.2-8.422-1.337-14.973-.134-3.609-.134-7.486-.134-10.962 0-2.807 0-5.414.067-7.353a11.317 11.317 0 0 0 .067-1.471 34.737 34.737 0 0 1-5.882-.535C.4 9.01 0 7.138 0 5.6V5c.067-1.672.067-2.608 2.072-3.209S8.155.989 12.834.855c2.406-.067 4.88-.067 7.219-.067s4.478 0 6.016.067c3.075.067 3.944.334 4.813.735a3.173 3.173 0 0 1 2.005 2.273 5.394 5.394 0 0 1 .067 1.069 5.305 5.305 0 0 1-1.137 3.476c-1.069 1.136-2.874 1.4-8.288 1.671h-.334l.4 5.281c.2 3.944.468 9.224.468 14.3a63.382 63.382 0 0 1-.868 12.24c-1.27 5.548-3.944 6.083-6.216 6.083z" transform="translate(0 -.587)" style="fill:#6c3d8e"/>
        <path data-name="Path 78081" d="M149.8 49.489c-1.872-.067-3.075-.067-3.743-2.941-.735-2.941-.936-8.69-1.069-15.441-.134-3.676-.134-7.687-.134-11.23 0-2.941 0-5.615.067-7.62.134-4.411.4-5.548.936-6.818a4.111 4.111 0 0 1 2.673-2.874 3.9 3.9 0 0 1 1.27-.2 6.366 6.366 0 0 1 4.144 1.671c.936 1.07 1.337 2.607 1.671 6.15.267-.936 1.8-6.283 6.952-7.219a14.79 14.79 0 0 1 2.54-.267 7.277 7.277 0 0 1 5.214 1.938c2.34 2.206 3.743 6.551 4.011 11.363l.067 2.139c0 4.545-.869 10.294-2.473 13.034-2.273 3.743-5.013 5.147-7.62 5.147a7.878 7.878 0 0 1-3.075-.6l1.738 1.671a10.728 10.728 0 0 0 5.414 2.072c1.872.334 3.944.735 5.08 2.206a4.728 4.728 0 0 1 .8 2.741 3.831 3.831 0 0 1-1 2.808 5.937 5.937 0 0 1-4.211 1.4 10.965 10.965 0 0 1-3.209-.468 13.914 13.914 0 0 1-8.155-6.216 22.219 22.219 0 0 1-1.6-3.075 36.763 36.763 0 0 1-.535 4.345c-1.07 6.15-3.61 6.283-5.481 6.283zM166.51 15c0-3.142-.6-5.548-2.206-5.749h-.267c-2.807.067-4.412 8.088-4.412 14.3 0 3.944.668 7.152 2.005 7.152 2.34 0 4.88-9.291 4.88-15.708" transform="translate(-107.994 -1.762)" style="fill:#6c3d8e"/>
        <path data-name="Path 78082" d="M385.826 49.488c-1.938-.067-3.075-.067-3.81-2.941-.669-2.941-.936-8.69-1.07-15.441-.067-3.342-.067-6.952-.067-10.227 0-3.342 0-6.417.067-8.623.134-4.412.4-5.548.869-6.818a4.111 4.111 0 0 1 2.674-2.874 4.311 4.311 0 0 1 1.337-.2 6.2 6.2 0 0 1 4.074 1.67c.936 1.07 1.4 2.607 1.671 6.15a18.457 18.457 0 0 1 .936-2.54 6.948 6.948 0 0 1 4.679-4.479 10.665 10.665 0 0 1 2.607-.4 7.091 7.091 0 0 1 5.147 2.005c2.34 2.273 3.743 6.617 4.011 11.363l.067 2.005c0 4.144-.869 8.422-2.473 11.162a8.94 8.94 0 0 1-7.487 4.545h-.2a8.351 8.351 0 0 1-6.217-2.807c-.134-.134-.2-.267-.334-.334a82.014 82.014 0 0 1-.735 12.5c-1.069 6.149-3.609 6.283-5.481 6.283zm13.435-29.077a15.627 15.627 0 0 0 .6-4.412 14.129 14.129 0 0 0-.8-4.946c-.4-1.07-.936-1.671-1.537-1.671s-1.27.535-1.872 1.671a32.013 32.013 0 0 0-2.34 10.026l-.067 1.136c0 2.206.535 3.409 1.6 3.409h.134c1.27-.2 3.342-2.139 4.278-5.214" transform="translate(-283.961 -1.762)" style="fill:#6c3d8e"/>
        <path data-name="Path 78083" d="M524 46.79c-9.558 0-12.3-13.7-12.3-21.657 0-3.743.2-8.088.535-11.9l-1-.067c-3.81-.334-4.278-1.069-4.345-1.938l-.067-.6a2.368 2.368 0 0 1 .669-1.738c.468-.535 1.337-.6 5.013-.668h.2c.2-1.537.4-6.617 2.941-7.821a6.217 6.217 0 0 1 2.607-.4c2.072 0 4.479.4 5.214 1.471.936 1.337 1.2 3.61 1.2 6.751 1.537.067 2.807.134 3.877.267 3.476.4 3.877 1.2 3.944 2.139 0 .869-.267 1.738-4.077 2.206-1 .134-2.406.334-3.877.4-.133 1.872-.2 3.877-.4 5.749v2.272c-.067 2.072-.2 5.147-.2 8.021 0 1.671.067 3.275.2 4.612.468 3.61 1.6 5.214 2.406 5.281h.067c.735 0 1.27-1.471 1.6-3.61.334-2.206.6-5.08 1.537-6.618a3.237 3.237 0 0 1 2.807-1.47 4.193 4.193 0 0 1 1.27.2c1.4.267 2.406 1.069 2.54 3.877v.4c0 3.409-1.537 14.839-11.831 14.839z" transform="translate(-377.853)" style="fill:#6c3d8e"/>
        <path data-name="Path 78084" d="M654.45 53.347c-3.677 0-7.754-1-10.427-3.476a13.606 13.606 0 0 1-4.145-9.158l.067-.2c.134-2.54 1.671-3.609 3.81-4.144a12.836 12.836 0 0 1 3.208-.468 4.178 4.178 0 0 1 3.075 1c1.27 1.471.936 4.545 1.537 6.684.535 2.139 1.872 3.409 3.142 3.409h.067c1.27-.134 2.473-1.6 3.075-4.88a76.182 76.182 0 0 0 .4-9.425v-.936a16.684 16.684 0 0 1-8.222 2.406 11.374 11.374 0 0 1-8.355-3.543c-1.938-1.938-3.008-4.88-3.342-8.957l-.067-2.54c0-3.543.468-7.286 1.538-9.492a4.515 4.515 0 0 1 4.478-2.54h.669c2.406.134 4.077.8 4.612 2.273l.067.4c0 1.47-.936 5.481-.936 9.224 0 3.275.735 6.283 3.342 7.019a6.616 6.616 0 0 0 1.2.134 8.427 8.427 0 0 0 4.144-1.2c.334-.2.4-1.2.4-2.607 0-3.476-.668-9.291-.668-11.363l.067-.334c.134-2.206.735-3.008 2.807-3.342a12.467 12.467 0 0 1 2.406-.2 6.742 6.742 0 0 1 4.746 1.471c1.337 1.337 1.471 3.877 1.471 7.286v5.414c0 2.34 0 4.746-.2 6.751 0 1.872-.066 3.61-.2 5.281-.334 8.021-1.337 12.567-3.476 15.574-2.206 2.941-5.615 4.278-9.558 4.479z" transform="translate(-475.858 -5.287)" style="fill:#6c3d8e"/>
        <path data-name="Path 78085" d="M294.636 20.56h.629a9.026 9.026 0 0 0 8.549-9.1 8.867 8.867 0 1 0-17.728 0 9.025 9.025 0 0 0 8.549 9.1m-6.71-12.089.2-1.056c.75.109.788.28 1.191-.278.144-.2-.093-.089.264-.174.4-.1.189.047.664-.492l-.679-.82a10.833 10.833 0 0 0 1.063-.3c.184-.051.387-.154.508-.173a3.889 3.889 0 0 1 2.217.976c.193.194.492.419.7.6 1.709 1.452 1.459.564 2.923.974l.123.343.606-.014a.9.9 0 0 0 .093.334l.024.039c.271.454.005.219.27.4s-.051.051.6.58c.291.235.042-.016.109.214.06.2.016.024.121.249-.17.258.038-.018-.168.124.5.531.221 1.247 1.055 1.156l-.137.242c.282.038.114-.037.291.263.645 1.088.857.8 2.279 1.007l.165.032c0-.007.443.121.193.926-.433 1.393.105.881-2.186 1.715-.893.326-2.412.1-3.074.874-.4.468-.328.706-.594.732-.522-.142.074-.2-.676-.217-.324-.009-.653-.135-.869-.135l-.7.061c-.384 0-.091-.14-.48-.091-.259.555.168.272-.308.774-.1-.1-.012 0-.095-.147l-.473-.755c-.708-.678-.48-.858-.848-1.431-.492-.767-.96-.272-1.235-1.5-.2-.893.219-.165-.194-1.1a1.372 1.372 0 0 0-.578-.834c-.124-.082-.238-.109-.317-.179-.326-.282-.123-.487-.377-.865-.086-.128-.142-.2-.2-.3l-.063-.124-.023-.039a1.672 1.672 0 0 0-.1-.144l-.722-1.13c-.194-.354-.131-.377-.581-.312" transform="translate(-213.289 -1.762)" style="fill:#6c3d8e"/>
        <path data-name="Path 78086" d="M292.359 162.6c-.14 0-.279.118-.326.353a.417.417 0 0 0 .279.412c4.466.529 6.141 1.7 6.141 2.293 0 .353-.651 1.118-3.024 1.706a32.524 32.524 0 0 1-7.769.882 30.006 30.006 0 0 1-7.77-.882c-2.373-.647-3.024-1.352-3.024-1.706 0-.588 1.675-1.764 6.141-2.293.14 0 .279-.177.279-.412a.348.348 0 0 0-.326-.353c-2 .235-6.653 1.059-6.653 3.058 0 1 1.163 1.823 3.489 2.411a35.488 35.488 0 0 0 15.725 0c2.28-.588 3.489-1.411 3.489-2.411 0-2-4.652-2.822-6.653-3.058" transform="translate(-205.998 -121.224)" style="fill:#6c3d8e"/>
        <path data-name="Path 78087" d="M310.435 78.394a3.256 3.256 0 0 0-2.044.582c-.913.825-1.241 3.881-1.278 7.664l-.036 3.1c0 4.8.365 11.884 3.76 11.884 2.993 0 3.4-9.071 3.4-13.048l-.036-1.649c-.146-3.929-.183-6.16-1.351-7.567a3.016 3.016 0 0 0-2.409-.97" transform="translate(-228.938 -58.446)" style="fill:#6c3d8e"/>
    </g>
</svg>
